<svg id="svg12" width="100%" viewBox="0 0 36 36" version="1.1" height="100%">
	<g stroke-width="1" stroke="none" id="Page-1" fill-rule="evenodd" fill="none">
		<g transform="translate(-244.000000, -244.000000)" id="Core" fill="#fff">
			<g transform="translate(257.000000, 257.000000)" id="fullscreen-exit">
				<path id="Shape" d="M0,11 L3,11 L3,14 L5,14 L5,9 L0,9 L0,11 L0,11 Z M3,3 L0,3 L0,5 L5,5 L5,0 L3,0 L3,3 L3,3 Z M9,14 L11,14 L11,11 L14,11 L14,9 L9,9 L9,14 L9,14 Z M11,3 L11,0 L9,0 L9,5 L14,5 L14,3 L11,3 L11,3 Z" />
			</g>
		</g>
	</g>
</svg>
